<svg version="1.1" viewBox="0 0 165 34" fill="#ffed00" xmlns="http://www.w3.org/2000/svg"><title>Main Icon</title>
    <path d="M109.5,13.2H87.2c-0.4,0-0.8,0.4-0.8,0.8v12.9c0,0.4,0.4,0.9,0.8,0.9h22.3c0.4,0,0.8-0.4,0.8-0.9V14
		C110.4,13.5,110.1,13.2,109.5,13.2z M104.4,22.4c0,0.2-0.1,0.3-0.3,0.3H92.7c-0.2,0-0.3-0.1-0.3-0.3v-3.9c0-0.2,0.1-0.3,0.3-0.3
		h11.5c0.2,0,0.3,0.1,0.3,0.3V22.4z M85.7,6.8l-12,20.7c-0.1,0.1-0.2,0.2-0.4,0.2h-5.6c-0.2,0-0.3-0.1-0.4-0.2l-12-20.7
		c-0.1-0.2,0-0.5,0.3-0.5h6.7c0.2,0,0.3,0.1,0.4,0.3l7.5,13.6c0.1,0.2,0.3,0.2,0.4,0l7.5-13.7c0.1-0.2,0.2-0.3,0.4-0.3h6.7
		C85.6,6.3,85.8,6.6,85.7,6.8z M123,27.7h-6.2c-0.2,0-0.3-0.1-0.3-0.3V6.6c0-0.2,0.1-0.3,0.3-0.3h6.1c0.2,0,0.3,0.1,0.3,0.3v20.8
		C123.4,27.6,123.1,27.7,123,27.7z M136.5,27.7h-6.1c-0.2,0-0.3-0.1-0.3-0.3V6.6c0-0.2,0.1-0.3,0.3-0.3h6.1c0.2,0,0.3,0.1,0.3,0.3
		v20.8C137,27.6,136.7,27.7,136.5,27.7z M165.3,27.7h-6.1c-0.2,0-0.3-0.1-0.3-0.3V6.6c0-0.2,0.1-0.3,0.3-0.3h6.1
		c0.2,0,0.3,0.1,0.3,0.3v20.8C165.6,27.6,165.5,27.7,165.3,27.7z M107.1,10.7h-6.8c-0.2,0-0.3-0.1-0.3-0.3V6.6
		c0-0.2,0.1-0.3,0.3-0.3h6.8c0.2,0,0.3,0.1,0.3,0.3v3.8C107.4,10.6,107.3,10.7,107.1,10.7z M96.5,10.7h-6.8c-0.2,0-0.3-0.1-0.3-0.3
		V6.6c0-0.2,0.1-0.3,0.3-0.3h6.8c0.2,0,0.3,0.1,0.3,0.3v3.8C96.8,10.6,96.7,10.7,96.5,10.7z M154.5,11.2l-7.8,7.8
		c-0.1,0.1-0.1,0.3,0,0.4l7.8,7.8c0.2,0.2,0.1,0.6-0.2,0.6h-7.8c-0.1,0-0.3-0.1-0.3-0.1l-8.2-8.2c-0.1-0.1-0.1-0.3,0-0.5l8.2-8.2
		c0.1-0.1,0.2-0.1,0.3-0.1h7.8C154.6,10.5,154.7,10.9,154.5,11.2z"></path>
	  <path d="M20.2,6.7c-0.1-0.2-0.3-0.2-0.4,0L4,33.8c-0.1,0.2-0.4,0.2-0.6,0L0,27.9c0-0.1,0-0.3,0.1-0.4L6.2,17L0.1,6.5
		C0,6.4,0,6.2,0.1,6.1l3.4-5.8C3.6,0,3.9,0,4.1,0.2l6,10.2l5.8-10.1C15.8,0.1,16,0,16.3,0h7.4c0.2,0,0.3,0.1,0.4,0.2l4.5,7.7
		l-3.8,6.6L20.2,6.7z M39.8,6.1l-3.4-5.8C36.3,0,36,0,35.8,0.2L20.2,27.3c-0.1,0.2-0.3,0.2-0.4,0l-4.6-7.9L11.4,26l4.5,7.7
		c0.1,0.2,0.2,0.2,0.4,0.2h7.4c0.2,0,0.3-0.1,0.4-0.2L30,23.6l5.9,10.2c0.1,0.2,0.4,0.2,0.6,0l3.4-5.8c0.1-0.2,0.1-0.3,0-0.5
		L33.8,17l6.1-10.5C40,6.4,40,6.2,39.8,6.1z"></path>
</svg>